<svg xmlns="http://www.w3.org/2000/svg" width="512" height="512" viewBox="0 0 64 64" role="img" aria-labelledby="title desc">
  <title id="title">NightWatch NW monogram</title>
  <desc id="desc">An NW monogram framed by a moonlit crescent orbit.</desc>
  <defs>
    <linearGradient id="bg" x1="8" y1="5" x2="56" y2="59" gradientUnits="userSpaceOnUse"><stop stop-color="#151B34"/><stop offset="1" stop-color="#070A14"/></linearGradient>
    <linearGradient id="glow" x1="13" y1="12" x2="53" y2="51" gradientUnits="userSpaceOnUse"><stop stop-color="#C9D2FF"/><stop offset=".45" stop-color="#8B7CFF"/><stop offset="1" stop-color="#5EE7F7"/></linearGradient>
  </defs>
  <rect x="2" y="2" width="60" height="60" rx="16" fill="url(#bg)" stroke="#FFFFFF" stroke-opacity=".1"/>
  <path d="M46.7 11.4A25 25 0 1 0 53 45.9 21 21 0 1 1 46.7 11.4Z" fill="url(#glow)" opacity=".92"/>
  <path d="M16 43V21h6l12 14V21h6v22h-6L22 29v14Z" fill="#F5F7FF"/>
  <path d="m28 21 5 22h6l4-11 4 11h6l6-22h-7l-3 13-4-13h-5l-4 13-2-13Z" fill="#F5F7FF"/>
  <circle cx="49" cy="16" r="2.5" fill="#5EE7F7"/>
</svg>
